<svg xmlns="http://www.w3.org/2000/svg" height="1200" width="1600" version="1.1" xmlns:xlink="http://www.w3.org/1999/xlink" xmlns:svgjs="http://svgjs.com/svgjs"><rect fill="#f3ebe9" width="1600" height="1200"></rect><g><path d="M883.28 797.48H1100.56C1115.69 797.48 1127.92 809.75 1127.92 824.84V1042.11C1127.92 1057.25 1115.64 1069.47 1100.56 1069.47H883.28C868.15 1069.47 855.92 1057.2 855.92 1042.11V824.89C855.87 809.75 868.15 797.48 883.28 797.48Z" fill="#cecece" opacity="1" stroke-width="4" stroke="none"></path></g><g><path d="M1121.55 495.75H1404.45C1426.85 495.75 1444.95 513.85 1444.95 536.25V804.75C1444.95 827.15 1426.85 845.25 1404.45 845.25H1121.55C1099.15 845.25 1081.05 827.15 1081.05 804.75V536.25C1080.95 513.85 1099.15 495.75 1121.55 495.75Z" fill="#ffffff" opacity="1" stroke-width="4" stroke="none"></path><path d="M1231.45 809.75C1236.7 809.75 1240.95 805.5 1240.95 800.25 1240.95 795 1236.7 790.75 1231.45 790.75 1226.2 790.75 1221.95 795 1221.95 800.25 1221.95 805.5 1226.2 809.75 1231.45 809.75Z" fill="#9e76dd" opacity="1" stroke-width="4" stroke="none"></path><path d="M1294.45 809.75C1299.7 809.75 1303.95 805.5 1303.95 800.25 1303.95 795 1299.7 790.75 1294.45 790.75 1289.2 790.75 1284.95 795 1284.95 800.25 1284.95 805.5 1289.2 809.75 1294.45 809.75Z" fill="#9e76dd" opacity="1" stroke-width="4" stroke="none"></path><path d="M1263.45 809.75C1268.7 809.75 1272.95 805.5 1272.95 800.25 1272.95 795 1268.7 790.75 1263.45 790.75 1258.2 790.75 1253.95 795 1253.95 800.25 1253.95 805.5 1258.2 809.75 1263.45 809.75Z" fill="#231f20" opacity="1" stroke-width="4" stroke="none"></path></g><g><path d="M1221.29 597.87C1221.29 591.81 1228.65 588.43 1235.74 591.4 1235.8 591.43 1235.84 591.4 1235.87 591.33 1236.14 590.17 1238.97 580.16 1251.37 577.57 1263.12 575.15 1270.79 584.58 1271.57 585.61 1271.61 585.64 1271.67 585.64 1271.71 585.61 1272.22 585.16 1275.05 582.75 1278.73 583.63 1281.01 584.18 1282.85 585.78 1283.73 587.92 1283.77 587.99 1283.8 587.99 1283.87 587.96 1284.62 587.51 1289.69 584.76 1295.93 586.32 1300.29 587.41 1304.48 591.47 1304.82 597.87V597.9L1301.69 612.62C1301.69 612.65 1301.65 612.65 1301.65 612.69L1261.56 634.93C1261.52 634.97 1261.49 634.93 1261.45 634.93L1222.31 601.89 1222.28 601.86 1221.29 597.87Z" fill="#9e76dd" opacity="1" stroke-width="4" stroke="none"></path><path d="M1255.97 619.84C1264.06 619.84 1270.62 613.28 1270.62 605.19 1270.62 597.1 1264.06 590.55 1255.97 590.55 1247.88 590.55 1241.32 597.1 1241.32 605.19 1241.32 613.28 1247.88 619.84 1255.97 619.84Z" fill="#756392" opacity="0.2" stroke-width="4" stroke="none"></path><path d="M1254.07 617.12C1262.05 615.76 1267.41 608.2 1266.06 600.22 1264.7 592.25 1257.14 586.88 1249.16 588.23 1241.19 589.59 1235.82 597.16 1237.18 605.13 1238.53 613.1 1246.09 618.47 1254.07 617.12Z" fill="#745600" opacity="1" stroke-width="4" stroke="none"></path><path d="M1253.16 611.78C1258.19 610.92 1261.57 606.16 1260.72 601.13 1259.86 596.1 1255.1 592.72 1250.07 593.57 1245.04 594.43 1241.66 599.2 1242.51 604.22 1243.37 609.25 1248.14 612.63 1253.16 611.78Z" fill="#bc8b00" opacity="1" stroke-width="4" stroke="none"></path><path d="M1256.28 609.76C1256.92 609.76 1257.44 609.24 1257.44 608.6 1257.44 607.96 1256.92 607.44 1256.28 607.44 1255.64 607.44 1255.12 607.96 1255.12 608.6 1255.12 609.24 1255.64 609.76 1256.28 609.76Z" fill="#ffbd03" opacity="1" stroke-width="4" stroke="none"></path><path d="M1246.43 600.96C1247.06 600.85 1247.48 600.25 1247.38 599.62 1247.27 598.99 1246.67 598.57 1246.04 598.67 1245.41 598.78 1244.98 599.38 1245.09 600.01 1245.2 600.64 1245.8 601.06 1246.43 600.96Z" fill="#ffbd03" opacity="1" stroke-width="4" stroke="none"></path><path d="M1247.76 610.92C1248.4 610.92 1248.92 610.4 1248.92 609.76 1248.92 609.12 1248.4 608.6 1247.76 608.6 1247.12 608.6 1246.6 609.12 1246.6 609.76 1246.6 610.4 1247.12 610.92 1247.76 610.92Z" fill="#ffbd03" opacity="1" stroke-width="4" stroke="none"></path><path d="M1254.67 598.4C1255.3 598.29 1255.73 597.7 1255.62 597.07 1255.51 596.44 1254.91 596.01 1254.28 596.12 1253.65 596.23 1253.23 596.82 1253.34 597.45 1253.44 598.09 1254.04 598.51 1254.67 598.4Z" fill="#ffbd03" opacity="1" stroke-width="4" stroke="none"></path><path d="M1252.26 612.11C1252.9 612.11 1253.42 611.59 1253.42 610.95 1253.42 610.31 1252.9 609.79 1252.26 609.79 1251.62 609.79 1251.1 610.31 1251.1 610.95 1251.1 611.59 1251.62 612.11 1252.26 612.11Z" fill="#ffbd03" opacity="1" stroke-width="4" stroke="none"></path><path d="M1250.01 597.96C1250.64 597.85 1251.06 597.25 1250.95 596.62 1250.85 595.99 1250.25 595.57 1249.62 595.67 1248.99 595.78 1248.56 596.38 1248.67 597.01 1248.78 597.64 1249.38 598.06 1250.01 597.96Z" fill="#ffbd03" opacity="1" stroke-width="4" stroke="none"></path><path d="M1245.41 606.86C1246.05 606.86 1246.57 606.35 1246.57 605.71 1246.57 605.06 1246.05 604.55 1245.41 604.55 1244.77 604.55 1244.25 605.06 1244.25 605.71 1244.25 606.35 1244.77 606.86 1245.41 606.86Z" fill="#ffbd03" opacity="1" stroke-width="4" stroke="none"></path><path d="M1257.67 601.98C1258.3 601.87 1258.73 601.27 1258.62 600.64 1258.51 600.01 1257.91 599.59 1257.28 599.69 1256.65 599.8 1256.23 600.4 1256.33 601.03 1256.44 601.66 1257.04 602.08 1257.67 601.98Z" fill="#ffbd03" opacity="1" stroke-width="4" stroke="none"></path><path d="M1256.96 642.63C1267.59 642.63 1276.2 634.01 1276.2 623.39 1276.2 612.76 1267.59 604.14 1256.96 604.14 1246.33 604.14 1237.71 612.76 1237.71 623.39 1237.71 634.01 1246.33 642.63 1256.96 642.63Z" fill="#372d0f" opacity="1" stroke-width="4" stroke="none"></path><path d="M1282.39 606.96C1285.11 603.74 1285.66 599.73 1283.62 598.01 1281.58 596.29 1277.72 597.5 1275.01 600.71 1272.28 603.93 1271.73 607.94 1273.77 609.66 1275.81 611.39 1279.67 610.18 1282.39 606.96Z" fill="#756392" opacity="0.2" stroke-width="4" stroke="none"></path><path d="M1277.87 610.1C1276.95 609.96 1276.03 610.24 1275.18 610.82 1275.08 608.84 1273.96 606.45 1271.98 604.48 1268.81 601.31 1264.62 600.32 1262.68 602.26 1260.74 604.21 1261.73 608.4 1264.9 611.56 1265.3 611.97 1265.71 612.35 1266.16 612.69 1265.64 612.76 1265.1 612.86 1264.55 612.96 1260.19 614.02 1257.16 617.05 1257.84 619.74 1258.49 622.4 1262.58 623.69 1266.94 622.64 1268.74 622.19 1270.35 621.41 1271.5 620.46 1271.78 623.52 1273.21 625.87 1275.29 626.21 1278.01 626.66 1280.8 623.42 1281.52 618.96 1282.23 614.49 1280.6 610.54 1277.87 610.1Z" fill="#000000" opacity="0.2" stroke-width="4" stroke="none"></path><path d="M1297.9 607.72C1298.62 603.28 1297 599.33 1294.29 598.89 1291.58 598.46 1288.8 601.7 1288.08 606.14 1287.37 610.58 1288.99 614.53 1291.7 614.97 1294.41 615.41 1297.19 612.16 1297.9 607.72Z" fill="#756392" opacity="0.2" stroke-width="4" stroke="none"></path><path d="M1280.76 604.74C1283.48 601.52 1284.03 597.51 1281.99 595.79 1279.95 594.06 1276.09 595.27 1273.37 598.49 1270.65 601.71 1270.09 605.72 1272.13 607.44 1274.17 609.17 1278.03 607.96 1280.76 604.74Z" fill="#3c2c5b" opacity="1" stroke-width="4" stroke="none"></path><path d="M1284.59 617.51C1287.28 616.89 1288.64 612.83 1287.61 608.45 1286.59 604.07 1283.57 601.03 1280.88 601.66 1278.19 602.29 1276.84 606.35 1277.86 610.73 1278.88 615.1 1281.9 618.14 1284.59 617.51Z" fill="#3c2c5b" opacity="1" stroke-width="4" stroke="none"></path><path d="M1295.39 605.81C1296.11 601.37 1294.49 597.42 1291.78 596.98 1289.07 596.55 1286.29 599.79 1285.58 604.23 1284.86 608.67 1286.48 612.62 1289.19 613.06 1291.9 613.49 1294.68 610.25 1295.39 605.81Z" fill="#3c2c5b" opacity="1" stroke-width="4" stroke="none"></path><path d="M1267.03 619.5C1271.4 618.43 1274.41 615.4 1273.76 612.73 1273.11 610.06 1269.04 608.77 1264.67 609.83 1260.3 610.9 1257.29 613.93 1257.94 616.6 1258.6 619.27 1262.67 620.56 1267.03 619.5Z" fill="#3c2c5b" opacity="1" stroke-width="4" stroke="none"></path><path d="M1238.19 618.17C1243.23 618.17 1247.32 614.09 1247.32 609.04 1247.32 604 1243.23 599.91 1238.19 599.91 1233.15 599.91 1229.06 604 1229.06 609.04 1229.06 614.09 1233.15 618.17 1238.19 618.17Z" fill="#372d0f" opacity="1" stroke-width="4" stroke="none"></path><path d="M1252.62 622.54C1254.05 618.28 1253.1 614.12 1250.49 613.24 1247.89 612.37 1244.62 615.12 1243.19 619.38 1241.76 623.65 1242.71 627.81 1245.31 628.68 1247.92 629.55 1251.19 626.81 1252.62 622.54Z" fill="#000000" opacity="0.2" stroke-width="4" stroke="none"></path><path d="M1247.05 606.86C1247.42 608.53 1247.35 610.13 1246.77 612.11" stroke="#000000" stroke-width="4" stroke-linecap="round" stroke-linejoin="round" opacity="1" fill="none"></path><path d="M1250.67 619.58C1252.1 615.31 1251.15 611.15 1248.54 610.28 1245.94 609.4 1242.67 612.15 1241.24 616.42 1239.81 620.68 1240.76 624.84 1243.37 625.72 1245.97 626.59 1249.24 623.84 1250.67 619.58Z" fill="#3c2c5b" opacity="1" stroke-width="4" stroke="none"></path><path d="M1289.25 612.62C1286.53 612.18 1284.89 608.23 1285.61 603.8" stroke="#000000" stroke-width="4" stroke-linecap="round" stroke-linejoin="round" opacity="1" fill="none"></path><path d="M1271.71 585.61C1272.12 585.23 1274.37 583.26 1277.43 583.43 1277.5 583.43 1277.53 583.46 1277.53 583.53 1277.53 584.21 1277.5 588.81 1274.57 592.18 1274.5 592.25 1274.43 592.22 1274.4 592.15 1273.45 587.96 1272.01 586.08 1271.71 585.74 1271.67 585.71 1271.67 585.64 1271.71 585.61Z" fill="#756392" opacity="0.2" stroke-width="4" stroke="none"></path><path d="M1283.77 588.03C1282.51 588.88 1281.35 589.87 1280.36 591.02" stroke="#404040" stroke-width="4" stroke-linecap="round" stroke-linejoin="round" opacity="1" fill="none"></path><path d="M1271.64 585.68C1272.22 586.32 1272.7 587.17 1273.17 588.33" stroke="#404040" stroke-width="4" stroke-linecap="round" stroke-linejoin="round" opacity="1" fill="none"></path><path d="M1235.84 591.43C1236.55 591.94 1237.47 592.66 1238.12 593.27" stroke="#404040" stroke-width="4" stroke-linecap="round" stroke-linejoin="round" opacity="1" fill="none"></path><path d="M1278.56 603.66C1279.03 602.71 1279.88 602.03 1280.91 601.75 1281.52 601.62 1282.13 601.65 1282.71 601.86" stroke="#000000" stroke-width="4" stroke-linecap="round" stroke-linejoin="round" opacity="1" fill="none"></path><path d="M1274.29 610.65C1276.25 608.69 1275.25 604.53 1272.08 601.35 1268.9 598.17 1264.74 597.18 1262.78 599.13 1260.82 601.09 1261.82 605.25 1264.99 608.43 1268.18 611.61 1272.34 612.6 1274.29 610.65Z" fill="#3c2c5b" opacity="1" stroke-width="4" stroke="none"></path><path d="M1272.53 611.33C1270.72 611.94 1268.2 611.19 1265.95 609.32" stroke="#000000" stroke-width="4" stroke-linecap="round" stroke-linejoin="round" opacity="1" fill="none"></path><path d="M1273.92 603.56C1273.41 602.64 1272.73 601.79 1271.95 601.04" stroke="#000000" stroke-width="4" stroke-linecap="round" stroke-linejoin="round" opacity="1" fill="none"></path><path d="M1281.55 615.94C1282.27 611.5 1280.63 607.54 1277.9 607.11 1275.17 606.67 1272.38 609.91 1271.66 614.34 1270.95 618.78 1272.58 622.74 1275.31 623.18 1278.04 623.62 1280.83 620.38 1281.55 615.94Z" fill="#3c2c5b" opacity="1" stroke-width="4" stroke="none"></path><path d="M1273.89 609.11C1272.76 610.61 1272.05 612.38 1271.78 614.26 1271.61 615.31 1271.57 616.37 1271.67 617.46" stroke="#000000" stroke-width="4" stroke-linecap="round" stroke-linejoin="round" opacity="1" fill="none"></path><path d="M1278.66 744.52H1221.39C1221.33 744.52 1221.29 744.49 1221.29 744.42V598.07C1221.29 598.01 1221.39 597.94 1221.46 598.01L1272.63 637.73C1276.48 640.72 1278.73 645.32 1278.73 650.19L1278.76 744.42C1278.76 744.49 1278.73 744.52 1278.66 744.52Z" fill="#ffc930" opacity="1" stroke-width="4" stroke="none"></path><path d="M1278.69 650.19C1278.69 645.32 1276.44 640.72 1272.59 637.73L1258.9 627.06C1258.87 627.03 1258.83 627.03 1258.8 627.06L1245.1 637.73C1241.25 640.72 1239.01 645.32 1239.01 650.19V743.87C1239.01 743.91 1239.04 743.98 1239.07 743.98 1240.67 744.35 1242.38 744.52 1244.08 744.52H1273.58C1275.32 744.52 1276.99 744.32 1278.62 743.98 1278.66 743.98 1278.69 743.94 1278.69 743.87V650.19Z" fill="#bc8b00" opacity="0.2" stroke-width="4" stroke="none"></path><path d="M1247.35 744.52H1304.72C1304.79 744.52 1304.82 744.49 1304.82 744.42V598.07C1304.82 598.01 1304.72 597.94 1304.65 598.01L1253.48 637.73C1249.63 640.72 1247.39 645.32 1247.39 650.19L1247.35 744.52Z" fill="#ffc930" opacity="1" stroke-width="4" stroke="none"></path><path d="M1281.14 646.75H1304.82V658.98H1281.14C1277.77 658.98 1275.01 656.22 1275.01 652.85 1275.05 649.48 1277.77 646.75 1281.14 646.75Z" fill="#bc8b00" opacity="1" stroke-width="4" stroke="none"></path><path d="M1281.14 675.2H1304.82V687.43H1281.14C1277.77 687.43 1275.01 684.67 1275.01 681.3 1275.05 677.96 1277.77 675.2 1281.14 675.2Z" fill="#bc8b00" opacity="1" stroke-width="4" stroke="none"></path><path d="M1281.14 703.68H1304.82V715.91H1281.14C1277.77 715.91 1275.01 713.15 1275.01 709.77 1275.05 706.4 1277.77 703.68 1281.14 703.68Z" fill="#bc8b00" opacity="1" stroke-width="4" stroke="none"></path><path d="M1263.06 630.3L1253.25 637.93C1249.4 640.93 1247.39 645.32 1247.39 650.19L1247.35 744.52" stroke="#000000" stroke-width="4" stroke-linecap="round" stroke-linejoin="round" opacity="1" fill="none"></path></g><g><path d="M203.86 486.97H406.61C423.98 486.97 438 501.06 438 518.36V721.11C438 738.48 423.92 752.5 406.61 752.5H203.86C186.5 752.5 172.47 738.42 172.47 721.11V518.36C172.47 501.06 186.56 486.97 203.86 486.97Z" fill="#ffffff" opacity="1" stroke-width="4" stroke="none"></path></g><g><path d="M254.01 665.43C252.94 667.87 254.04 670.74 256.48 671.81 256.55 671.85 256.58 671.85 256.65 671.88 289.21 684.67 325.38 684.67 357.94 671.88 360.41 670.88 361.64 668.07 360.64 665.57 360.61 665.5 360.61 665.47 360.58 665.4L311.75 553.89C310.68 551.42 307.81 550.32 305.34 551.39 304.24 551.89 303.34 552.75 302.83 553.89L254.01 665.43Z" fill="#ffc930" opacity="1" stroke-width="4" stroke="none"></path><path d="M317.79 607.9C317.79 619.62 327.31 629.1 339 629.1 340.8 629.1 342.6 628.87 344.37 628.4L334.89 606.7C332.88 608.03 330.21 607.5 328.88 605.49 327.54 603.49 328.08 600.82 330.08 599.48 330.51 599.18 330.98 598.98 331.48 598.88L327.61 590.06C321.5 593.94 317.79 600.68 317.79 607.9ZM331.98 615.41C333.55 615.41 334.82 616.68 334.82 618.25 334.82 619.82 333.55 621.09 331.98 621.09 330.41 621.09 329.14 619.82 329.14 618.25 329.14 616.68 330.41 615.41 331.98 615.41Z" fill="#372d0f" opacity="0.2" stroke-width="4" stroke="none"></path><path d="M275.48 675.68C278.86 674.58 280.54 670.37 279.21 666.26 277.89 662.15 274.07 659.71 270.68 660.8 267.29 661.89 265.62 666.11 266.94 670.22 268.27 674.32 272.09 676.77 275.48 675.68Z" fill="#000000" opacity="1" stroke-width="4" stroke="none"></path><path d="M316.66 605.32C316.66 617.04 326.18 626.52 337.87 626.52 339.67 626.52 341.48 626.29 343.25 625.82L333.76 604.11C331.76 605.45 329.09 604.92 327.75 602.91 326.42 600.91 326.95 598.24 328.95 596.9 329.39 596.6 329.86 596.4 330.36 596.3L326.48 587.48C320.37 591.36 316.66 598.1 316.66 605.32ZM330.86 612.83C332.43 612.83 333.7 614.1 333.7 615.67 333.7 617.24 332.43 618.51 330.86 618.51 329.29 618.51 328.02 617.24 328.02 615.67 328.02 614.1 329.29 612.83 330.86 612.83Z" fill="#ff4f32" opacity="1" stroke-width="4" stroke="none"></path><path d="M341.97 663.86C344.63 660.46 344.52 655.93 341.71 653.74 338.91 651.54 334.48 652.52 331.82 655.92 329.16 659.32 329.28 663.85 332.08 666.04 334.88 668.24 339.31 667.26 341.97 663.86Z" fill="#000000" opacity="1" stroke-width="4" stroke="none"></path><path d="M274.85 630.33C278.76 628.46 280.66 624.36 279.12 621.15 278.32 619.45 276.72 618.34 274.78 617.94L269.07 631C271.04 631.44 273.08 631.2 274.85 630.33Z" fill="#000000" opacity="1" stroke-width="4" stroke="none"></path><path d="M312.1 573.07C313.57 576.15 317.61 577.28 321.35 575.81L316.17 563.99C312.4 565.89 310.6 569.9 312.1 573.07Z" fill="#000000" opacity="1" stroke-width="4" stroke="none"></path><path d="M327.01 600.48C327.01 602.88 328.95 604.82 331.35 604.82 332.19 604.82 333.02 604.59 333.76 604.12L330.32 596.27C328.38 596.77 327.01 598.51 327.01 600.48Z" fill="#fdebe8" opacity="1" stroke-width="4" stroke="none"></path><path d="M330.85 618.51C332.42 618.51 333.69 617.24 333.69 615.67 333.69 614.11 332.42 612.83 330.85 612.83 329.29 612.83 328.02 614.11 328.02 615.67 328.02 617.24 329.29 618.51 330.85 618.51Z" fill="#fdebe8" opacity="1" stroke-width="4" stroke="none"></path><path d="M292.55 626.23C281.9 631.1 277.22 643.69 282.1 654.35 286.97 665 299.56 669.67 310.21 664.8 320.87 659.92 325.54 647.33 320.67 636.68 315.79 626.03 303.2 621.35 292.55 626.23 292.58 626.23 292.58 626.23 292.55 626.23ZM298.76 655.35C296.59 656.35 294.02 655.38 293.02 653.21 292.01 651.04 292.98 648.47 295.15 647.47 297.32 646.46 299.9 647.43 300.9 649.6 301.87 651.77 300.93 654.35 298.76 655.35ZM312.65 654.85C311.55 655.35 310.28 654.88 309.78 653.78 309.28 652.68 309.75 651.41 310.85 650.91 311.95 650.4 313.22 650.87 313.72 651.97 314.22 653.08 313.75 654.35 312.65 654.85ZM309.08 641.42C307.48 642.16 305.61 641.45 304.87 639.85 304.14 638.25 304.84 636.38 306.44 635.64 308.04 634.91 309.91 635.61 310.65 637.21 311.38 638.82 310.68 640.69 309.08 641.42Z" fill="#372d0f" opacity="0.2" stroke-width="4" stroke="none"></path><path d="M289.86 624.38C280.63 628.66 275.95 641.25 280.83 651.91 285.7 662.56 298.29 667.24 308.95 662.36 319.6 657.48 324.27 644.89 319.4 634.24 314.52 623.59 301.42 619.76 294.06 622.57 291.31 623.79 291.35 623.68 290.74 624.02ZM297.49 652.91C295.32 653.91 292.75 652.94 291.75 650.77 290.75 648.6 291.71 646.03 293.88 645.03 296.06 644.03 298.63 644.99 299.63 647.17 300.6 649.34 299.66 651.91 297.49 652.91ZM311.38 652.41C310.28 652.91 309.01 652.44 308.51 651.34 308.01 650.24 308.48 648.97 309.58 648.47 310.68 647.97 311.95 648.43 312.45 649.54 312.95 650.64 312.49 651.91 311.38 652.41ZM307.81 638.98C306.21 639.72 304.34 639.02 303.6 637.41 302.87 635.81 303.57 633.94 305.17 633.21 306.78 632.47 308.65 633.17 309.38 634.78 310.11 636.38 309.41 638.25 307.81 638.98Z" fill="#ff4f32" opacity="1" stroke-width="4" stroke="none"></path><path d="M295.65 653.31C298.05 653.31 300 651.37 300 648.97 300 646.57 298.05 644.63 295.65 644.63 293.26 644.63 291.31 646.57 291.31 648.97 291.31 651.37 293.26 653.31 295.65 653.31Z" fill="#fdebe8" opacity="1" stroke-width="4" stroke="none"></path><path d="M306.51 639.28C308.26 639.28 309.68 637.86 309.68 636.11 309.68 634.36 308.26 632.94 306.51 632.94 304.75 632.94 303.34 634.36 303.34 636.11 303.34 637.86 304.75 639.28 306.51 639.28Z" fill="#fdebe8" opacity="1" stroke-width="4" stroke="none"></path><path d="M310.48 652.61C311.68 652.61 312.65 651.64 312.65 650.44 312.65 649.24 311.68 648.27 310.48 648.27 309.28 648.27 308.31 649.24 308.31 650.44 308.31 651.64 309.28 652.61 310.48 652.61Z" fill="#fdebe8" opacity="1" stroke-width="4" stroke="none"></path><path d="M307.01 694.65C286.6 694.69 266.4 690.48 247.73 682.26 242.65 680.03 240.35 674.12 242.55 669.07 244.79 664 250.7 661.69 255.75 663.9 288.41 678.16 325.58 678.16 358.24 663.9 363.31 661.66 369.23 664 371.43 669.07 373.67 674.15 371.33 680.06 366.25 682.26 347.62 690.48 327.41 694.72 307.01 694.65Z" fill="#3c2c5b" opacity="1" stroke-width="4" stroke="none"></path><path d="M371.43 669.07C370.09 665.97 367.36 663.89 364.28 663.26 365.25 667.8 362.91 672.58 358.47 674.48 339.84 682.7 319.63 686.94 299.23 686.87 279.56 686.91 260.09 683 241.99 675.35 242.69 678.32 244.73 680.93 247.73 682.26 266.4 690.48 286.6 694.69 307.01 694.65 327.41 694.72 347.62 690.48 366.25 682.26 371.33 680.06 373.67 674.15 371.43 669.07Z" fill="#000000" opacity="0.2" stroke-width="4" stroke="none"></path><path d="M323.34 650.24C318.26 650.24 313.62 647.3 311.45 642.69L316.59 640.29C318.3 644.03 322.74 645.66 326.48 643.96 330.22 642.26 331.86 637.81 330.15 634.07 330.12 634.04 330.12 633.97 330.09 633.94L335.23 631.54C338.3 638.11 335.5 645.93 328.92 649 327.15 649.8 325.24 650.24 323.34 650.24Z" fill="#3c2c5b" opacity="1" stroke-width="4" stroke="none"></path><path d="M261.88 658.82H262.08C269.26 658.82 275.1 653.05 275.2 645.87L269.53 645.8C269.46 649.87 266.15 653.15 262.08 653.15H261.98C261.14 653.15 260.34 652.98 259.57 652.71L257.3 657.92C258.74 658.49 260.31 658.79 261.88 658.82Z" fill="#3c2c5b" opacity="1" stroke-width="4" stroke="none"></path><path d="M303.9 589.69C303.9 582.74 300.5 576.23 294.79 572.26L290.68 581.61C292.92 583.08 293.55 586.08 292.08 588.32 291.18 589.69 289.68 590.53 288.04 590.53 287.64 590.53 287.24 590.46 286.87 590.36L278.11 610.36C289.54 612.9 300.86 605.72 303.4 594.3 303.74 592.8 303.9 591.26 303.9 589.69ZM290.71 597.54C291.91 597.54 292.88 598.51 292.88 599.71 292.88 600.91 291.91 601.88 290.71 601.88 289.51 601.88 288.54 600.91 288.54 599.71 288.54 598.54 289.51 597.54 290.71 597.54Z" fill="#332f23" opacity="0.2" stroke-width="4" stroke="none"></path><path d="M304.97 587.28C304.97 580.34 301.56 573.82 295.85 569.85L291.74 579.2C293.98 580.67 294.61 583.68 293.14 585.91 292.24 587.28 290.74 588.12 289.1 588.12 288.7 588.12 288.3 588.05 287.93 587.95L279.17 607.95C290.59 610.49 301.93 603.31 304.46 591.89 304.8 590.39 304.97 588.85 304.97 587.28ZM291.77 595.13C292.98 595.13 293.94 596.1 293.94 597.3 293.94 598.5 292.98 599.47 291.77 599.47 290.57 599.47 289.6 598.5 289.6 597.3 289.6 596.13 290.57 595.13 291.77 595.13Z" fill="#ff4f32" opacity="1" stroke-width="4" stroke="none"></path><path d="M289.1 588.09C291.77 588.09 293.94 585.92 293.94 583.25 293.94 581.61 293.11 580.07 291.74 579.2L287.93 587.95C288.3 588.05 288.7 588.09 289.1 588.09Z" fill="#fdebe8" opacity="1" stroke-width="4" stroke="none"></path><path d="M291.78 599.48C292.98 599.48 293.95 598.5 293.95 597.3 293.95 596.11 292.98 595.13 291.78 595.13 290.58 595.13 289.61 596.11 289.61 597.3 289.61 598.5 290.58 599.48 291.78 599.48Z" fill="#fdebe8" opacity="1" stroke-width="4" stroke="none"></path><path d="M301.13 609.53C296.39 604.05 296.99 595.74 302.5 590.99 304.74 589.06 307.54 587.95 310.48 587.82L310.75 593.5C306.64 593.7 303.47 597.17 303.64 601.28 303.84 605.39 307.31 608.56 311.42 608.39L311.68 614.07C308.21 614.24 304.8 613 302.23 610.63 301.83 610.26 301.47 609.9 301.13 609.53Z" fill="#3c2c5b" opacity="1" stroke-width="4" stroke="none"></path></g><g><path d="M331.16 361.84L397.83 361.84 423.35 382.42C426.21 384.7 430.31 384.23 432.59 381.46 433.55 380.32 434.02 378.89 434.02 377.37V305.75C434.02 274.79 408.88 249.65 377.92 249.65H331.16C300.2 249.65 275.06 274.79 275.06 305.75 274.97 336.7 300.11 361.84 331.16 361.84Z" fill="#ff4f32" opacity="1" stroke-width="4" stroke="none"></path><path d="M357.07 326.32L368.49 334.22C370.59 335.65 373.45 335.08 374.88 333.08 375.64 331.94 375.92 330.51 375.45 329.18L371.54 315.84C370.97 314.03 371.64 312.13 373.16 310.89L384.21 302.41C386.21 300.89 386.59 298.03 385.07 296.03 384.21 294.98 382.97 294.32 381.54 294.22L367.64 293.84C365.73 293.75 364.11 292.6 363.45 290.79L358.78 277.74C357.92 275.36 355.35 274.13 352.97 274.98 351.64 275.46 350.68 276.51 350.21 277.74L345.54 290.79C344.87 292.6 343.25 293.75 341.35 293.84L327.44 294.22C324.97 294.32 322.97 296.41 322.97 298.89 322.97 300.22 323.63 301.56 324.78 302.41L335.83 310.89C337.35 312.03 337.92 314.03 337.44 315.84L333.54 329.18C332.78 331.56 334.21 334.13 336.59 334.89 337.92 335.27 339.35 335.08 340.49 334.32L351.92 326.41C353.45 325.27 355.54 325.27 357.07 326.32Z" fill="#ffffff" opacity="1" stroke-width="4" stroke="none"></path></g><g><path d="M1021.57 983.44L1053.53 978.26C1059.61 977.1 1063.75 971.54 1062.71 965.46L1050.03 887.84C1049 881.76 1043.43 877.62 1037.35 878.65L921.44 897.41C915.36 898.44 911.35 904.14 912.26 910.09L924.16 983.05 924.93 987.71C925.97 993.79 931.53 997.93 937.61 996.89L990.26 988.49 1021.57 983.44Z" fill="#9e76dd" opacity="1" stroke-width="4" stroke="none"></path><path d="M1051.91 898.66L913.99 921.05 917.51 942.75 1055.43 920.37 1051.91 898.66Z" fill="#141414" opacity="1" stroke-width="4" stroke="none"></path><path d="M945.37 955.37L964.39 952.26C968.27 951.62 971.89 954.33 972.54 958.21L973.83 965.85C974.48 969.73 971.76 973.35 967.88 974L948.74 977.1C944.86 977.75 941.23 975.03 940.59 971.15L939.29 963.52C938.78 959.64 941.36 956.01 945.37 955.37Z" fill="#bcbcbc" opacity="1" stroke-width="4" stroke="none"></path></g><g><path d="M682.45 154.15H1100.15C1129.25 154.15 1152.75 177.75 1152.75 206.75V624.45C1152.75 653.55 1129.15 677.05 1100.15 677.05H682.45C653.35 677.05 629.85 653.45 629.85 624.45V206.85C629.75 177.75 653.35 154.15 682.45 154.15Z" fill="#cecece" opacity="1" stroke-width="4" stroke="none"></path></g><g><path d="M1021.03 410.87C1021.03 410.87 976.34 471.7 887.28 471.7 798.22 471.7 753.53 410.87 753.53 410.87H1021.03V410.87Z" fill="#0c0c0c" opacity="1" stroke-width="4" stroke="none"></path><path d="M913.72 436.63C908.69 456.06 888.89 467.72 869.47 462.7 850.41 457.79 838.74 438.62 843.15 419.44 847.93 399.95 871.95 370.03 891.44 374.75 910.93 379.47 918.44 417.14 913.72 436.63Z" fill="#ffffff" opacity="1" stroke-width="4" stroke="none"></path><path d="M878.4 447.3C889.03 447.3 897.64 438.69 897.64 428.06 897.64 417.44 889.03 408.82 878.4 408.82 867.78 408.82 859.16 417.44 859.16 428.06 859.16 438.69 867.78 447.3 878.4 447.3Z" fill="#ff4f32" opacity="1" stroke-width="4" stroke="none"></path><path d="M869.47 462.7C871.82 463.32 874.25 463.69 876.6 463.81 880.45 463.63 884.18 462.82 887.71 461.45 888.77 455.31 888.33 448.86 886.22 442.53 881.51 428.37 866.61 409.82 851.1 401.69 847.31 407.77 844.45 413.98 843.15 419.44 838.74 438.62 850.41 457.79 869.47 462.7Z" fill="#ff4f32" opacity="0.2" stroke-width="4" stroke="none"></path><path d="M878.84 439.73C885.73 460.34 874.56 482.62 853.95 489.51 833.34 496.4 811.06 485.23 804.17 464.62 797.28 444.01 802.06 402.68 822.67 395.79 843.27 388.9 871.95 419.06 878.84 439.73Z" fill="#ffffff" opacity="1" stroke-width="4" stroke="none"></path><path d="M841.54 473C853.06 473 862.39 463.66 862.39 452.15 862.39 440.63 853.06 431.29 841.54 431.29 830.02 431.29 820.68 440.63 820.68 452.15 820.68 463.66 830.02 473 841.54 473Z" fill="#ff4f32" opacity="1" stroke-width="4" stroke="none"></path><path d="M895.29 464.87C893.36 464.06 892.43 461.89 893.24 459.97L973.8 258.75 986.4 264.03 900.25 462.88C899.44 464.81 897.21 465.68 895.29 464.87Z" fill="#ff4f32" opacity="1" stroke-width="4" stroke="none"></path><path d="M965.54 312.19L986.4 264.03 973.8 258.75 954.25 307.47 965.54 312.19Z" fill="#9e76dd" opacity="1" stroke-width="4" stroke="none"></path><path d="M980.07 268.19C983.84 268.19 986.89 265.13 986.89 261.36 986.89 257.58 983.84 254.53 980.07 254.53 976.29 254.53 973.24 257.58 973.24 261.36 973.24 265.13 976.29 268.19 980.07 268.19Z" fill="#3c2c5b" opacity="1" stroke-width="4" stroke="none"></path><path d="M894.91 483.55C893.24 482.37 892.8 480.01 893.98 478.34L1016.62 299.59 1027.79 307.47 900.13 482.68C898.95 484.36 896.59 484.73 894.91 483.55Z" fill="#ff4f32" opacity="1" stroke-width="4" stroke="none"></path><path d="M988.32 340.8L998.34 347.9 1027.79 307.53 1016.62 299.59 988.32 340.8Z" fill="#9e76dd" opacity="1" stroke-width="4" stroke="none"></path><path d="M1022.16 310.46C1025.94 310.46 1029 307.4 1029 303.62 1029 299.84 1025.94 296.78 1022.16 296.78 1018.38 296.78 1015.31 299.84 1015.31 303.62 1015.31 307.4 1018.38 310.46 1022.16 310.46Z" fill="#3c2c5b" opacity="1" stroke-width="4" stroke="none"></path><path d="M815.78 481.94C824.59 478.15 830.8 469.34 830.8 459.16 830.8 445.88 820.44 435.08 807.34 434.39 805.35 434.46 803.43 434.77 801.63 435.33 800.64 446.06 801.57 456.86 804.24 464.68 806.47 471.57 810.57 477.47 815.78 481.94Z" fill="#ff4f32" opacity="0.2" stroke-width="4" stroke="none"></path><path d="M801.38 479.76C815.09 479.76 826.21 468.65 826.21 454.94 826.21 441.23 815.09 430.11 801.38 430.11 787.67 430.11 776.56 441.23 776.56 454.94 776.56 468.65 787.67 479.76 801.38 479.76Z" fill="#ffc930" opacity="1" stroke-width="4" stroke="none"></path><path d="M801.38 468.9C809.1 468.9 815.35 462.65 815.35 454.94 815.35 447.22 809.1 440.97 801.38 440.97 793.67 440.97 787.42 447.22 787.42 454.94 787.42 462.65 793.67 468.9 801.38 468.9Z" fill="#ff4f32" opacity="1" stroke-width="4" stroke="none"></path><path d="M971.25 496.34C990.96 496.34 1006.94 480.36 1006.94 460.65 1006.94 440.94 990.96 424.96 971.25 424.96 951.54 424.96 935.57 440.94 935.57 460.65 935.57 480.36 951.54 496.34 971.25 496.34Z" fill="#ffc930" opacity="1" stroke-width="4" stroke="none"></path><path d="M971.19 485.54C984.9 485.54 996.02 474.42 996.02 460.71 996.02 447 984.9 435.88 971.19 435.88 957.48 435.88 946.36 447 946.36 460.71 946.36 474.42 957.48 485.54 971.19 485.54Z" fill="#ff4f32" opacity="1" stroke-width="4" stroke="none"></path><path d="M971.19 474.67C978.91 474.67 985.15 468.42 985.15 460.71 985.15 453 978.91 446.75 971.19 446.75 963.48 446.75 957.23 453 957.23 460.71 957.23 468.42 963.48 474.67 971.19 474.67Z" fill="#ffc930" opacity="1" stroke-width="4" stroke="none"></path><path d="M948.91 432.91C942.27 438.24 937.49 445.94 936.06 455 932.9 474.43 946.12 492.8 965.54 495.96 967.03 496.21 968.58 496.34 970.07 496.4 971.75 491.06 972.62 485.35 972.62 479.39 972.62 460.28 963.25 443.33 948.91 432.91Z" fill="#ff4f32" opacity="0.2" stroke-width="4" stroke="none"></path><path d="M850.29 402.99C863.26 412.24 874.8 427.63 878.84 439.73" stroke="#2a2a2a" stroke-width="4" stroke-linecap="round" stroke-linejoin="round" opacity="1" fill="none"></path><path d="M908.5 533.64C940.21 533.64 965.91 507.94 965.91 476.23 965.91 444.52 940.21 418.82 908.5 418.82 876.8 418.82 851.1 444.52 851.1 476.23 851.1 507.94 876.8 533.64 908.5 533.64Z" fill="#ffc930" opacity="1" stroke-width="4" stroke="none"></path><path d="M908.5 522.77C934.21 522.77 955.05 501.93 955.05 476.23 955.05 450.52 934.21 429.68 908.5 429.68 882.8 429.68 861.96 450.52 861.96 476.23 861.96 501.93 882.8 522.77 908.5 522.77Z" fill="#ff4f32" opacity="1" stroke-width="4" stroke="none"></path><path d="M908.5 511.91C928.22 511.91 944.19 495.94 944.19 476.23 944.19 456.51 928.22 440.54 908.5 440.54 888.79 440.54 872.82 456.51 872.82 476.23 872.82 495.94 888.79 511.91 908.5 511.91Z" fill="#ffc930" opacity="1" stroke-width="4" stroke="none"></path><path d="M908.5 501.05C922.22 501.05 933.33 489.94 933.33 476.23 933.33 462.52 922.22 451.4 908.5 451.4 894.79 451.4 883.68 462.52 883.68 476.23 883.68 489.94 894.79 501.05 908.5 501.05Z" fill="#ff4f32" opacity="1" stroke-width="4" stroke="none"></path><path d="M908.5 490.19C916.22 490.19 922.47 483.94 922.47 476.23 922.47 468.51 916.22 462.26 908.5 462.26 900.79 462.26 894.54 468.51 894.54 476.23 894.54 483.94 900.79 490.19 908.5 490.19Z" fill="#ffc930" opacity="1" stroke-width="4" stroke="none"></path><path d="M947.92 433.03C959.52 444.14 965.85 459.66 965.48 475.67" stroke="#030303" stroke-width="4" stroke-linecap="round" stroke-linejoin="round" opacity="1" fill="none"></path><path d="M887.28 471.7C798.22 471.7 753.53 410.87 753.53 410.87 753.53 484.73 813.42 544.62 887.28 544.62 961.14 544.62 1021.03 484.73 1021.03 410.87 1021.03 410.87 976.34 471.7 887.28 471.7Z" fill="#3c2c5b" opacity="1" stroke-width="4" stroke="none"></path><path d="M968.27 452.69C953.06 498.99 913.22 534.13 864.25 542.64 871.76 543.94 879.46 544.62 887.28 544.62 961.14 544.62 1021.03 484.73 1021.03 410.87 1021.03 410.87 1002.6 435.18 968.27 452.69Z" fill="#0c0c0c" opacity="0.2" stroke-width="4" stroke="none"></path><path d="M990.06 496.46C986.64 491.56 982.42 487.27 975.22 487.27 965.98 487.27 961.57 494.41 957.66 500.68 953.75 506.95 950.96 510.86 945.93 510.86 940.9 510.86 938.11 507.01 934.2 500.68 930.29 494.35 925.88 487.27 916.64 487.27 907.39 487.27 902.98 494.41 899.07 500.68 895.16 506.95 892.37 510.86 887.34 510.86 882.31 510.86 879.52 507.01 875.61 500.68 871.7 494.35 867.29 487.27 858.05 487.27 848.8 487.27 844.39 494.41 840.48 500.68 836.57 506.95 833.78 510.86 828.75 510.86 823.72 510.86 820.93 507.01 817.02 500.68 813.11 494.35 808.7 487.27 799.46 487.27 792.2 487.27 787.91 491.68 784.56 496.58 786.05 498.38 787.6 500.18 789.22 501.86 792.44 496.96 795.05 494.04 799.46 494.04 804.55 494.04 807.28 497.89 811.19 504.22 815.1 510.55 819.5 517.62 828.75 517.62 838 517.62 842.41 510.49 846.32 504.22 850.23 497.95 853.02 494.04 858.05 494.04 863.07 494.04 865.87 497.89 869.78 504.22 873.69 510.55 878.09 517.62 887.34 517.62 896.59 517.62 901 510.49 904.91 504.22 908.82 497.95 911.61 494.04 916.64 494.04 921.66 494.04 924.46 497.89 928.37 504.22 932.28 510.55 936.68 517.62 945.93 517.62 955.18 517.62 959.58 510.49 963.49 504.22 967.4 497.95 970.2 494.04 975.22 494.04 979.57 494.04 982.24 496.89 985.4 501.74 986.95 500 988.51 498.26 990.06 496.46Z" fill="#9e76dd" opacity="1" stroke-width="4" stroke="none"></path><path d="M924.7 539.35H849.79V561.07H924.7V539.35Z" fill="#0c0c0c" opacity="1" stroke-width="4" stroke="none"></path><path d="M924.7 539.35H849.79V548.66H924.7V539.35Z" fill="#9e76dd" opacity="1" stroke-width="4" stroke="none"></path><path d="M924.7 539.35H878.78V548.66H924.7V539.35Z" fill="#756392" opacity="0.2" stroke-width="4" stroke="none"></path></g><g><path d="M1129.18 107.86C1096.29 107.86 1069.61 134.54 1069.61 167.43 1069.61 200.33 1096.29 227 1129.18 227 1162.08 227 1188.75 200.33 1188.75 167.43 1188.75 134.54 1162.08 107.86 1129.18 107.86Z" fill="#ffc930" opacity="1" stroke-width="4" stroke="none"></path><path d="M1097.38 175.36C1098.06 177.55 1100.12 178.99 1102.37 178.99 1102.44 178.99 1102.44 179.06 1102.44 179.06 1101.69 180.29 1101.48 181.73 1101.89 183.09 1102.58 185.28 1104.63 186.72 1106.89 186.72 1106.95 186.72 1106.95 186.79 1106.95 186.79 1106.07 188.36 1105.93 190.27 1106.82 191.85 1108.05 193.97 1110.58 194.92 1112.9 194.24L1126.24 190.34C1130.96 188.97 1135.54 186.99 1139.78 184.53 1141.42 183.57 1142.18 181.66 1141.7 179.88L1133.9 153.21C1133.63 152.25 1132.94 151.36 1132.05 150.88 1127.61 148.28 1114 140.21 1112.02 139.6 1102.71 138.43 1112.49 152.86 1114.41 156.08 1114.41 156.15 1114.41 156.15 1114.34 156.15 1113.11 156.49 1098.75 160.73 1098.75 160.73 1093.82 161.96 1093.41 169.21 1098.47 170.51 1098.54 170.51 1098.54 170.58 1098.47 170.65 1097.31 171.88 1096.83 173.72 1097.38 175.36Z" fill="#ffffff" opacity="1" stroke-width="4" stroke="none"></path><path d="M1137.66 149.79L1147.1 182.14C1147.58 183.71 1149.22 184.6 1150.79 184.19L1162.08 180.9C1163.65 180.43 1164.54 178.78 1164.13 177.21L1154.69 144.79C1154.21 143.22 1152.57 142.33 1151 142.74L1139.65 146.09C1138.07 146.57 1137.05 148.28 1137.66 149.79Z" fill="#ffffff" opacity="1" stroke-width="4" stroke="none"></path></g><g><path d="M606.22 1096.09L568.12 1055.54C565.36 1035.11 564.62 1008.54 565.36 988.43L660.11 992.66C655.98 1019.02 653.44 1046.12 661.91 1054.48 662.96 1055.54 663.92 1056.5 664.98 1057.45L656.4 1096.19H646.87L606.22 1096.09Z" fill="#996b4d" opacity="1" stroke-width="4" stroke="none"></path><path d="M449.35 1098.1L419.39 1056.92C418.96 1035.32 420.98 1013.2 425 993.3L524.29 992.56C516.99 1012.99 513.07 1029.29 513.92 1037.55 514.66 1043.69 517.31 1049.83 521.33 1054.7L517.52 1098.1H449.35V1098.1Z" fill="#996b4d" opacity="1" stroke-width="4" stroke="none"></path><path d="M422.46 1090.79C420.55 1079.68 419.49 1067.61 419.28 1056.92 420.98 1056.71 422.67 1056.6 424.36 1056.6 444.69 1056.6 463.11 1070.68 468.82 1090.26L422.46 1090.79Z" fill="#3c2c5b" opacity="1" stroke-width="4" stroke="none"></path><path d="M648.04 579.4L525.46 580.03H524.82C524.61 580.03 524.4 580.03 524.19 580.25 490.74 609.14 486.29 710.45 491.37 765.71L491.69 768.56C497.09 827.42 486.5 847.22 467.24 883.21 463.85 889.45 460.46 895.91 456.76 903.11 441.83 931.8 431.14 962.49 424.79 994.15L523.55 994.04C524.82 990.65 526.09 987.05 527.47 983.45 535.51 962.92 544.51 943.55 553.3 924.81 564.83 900.04 576.8 874.53 587.06 844.68H587.17C586.11 867.54 580.82 895.38 571.72 938.46 569.07 951.27 567.06 964.82 565.89 978.69 565.36 984.83 565.15 987.37 565.05 991.92L660.11 994.04C660.42 991.92 660.74 989.81 661.16 987.58 661.69 984.62 662.22 981.65 662.75 978.58 664.23 969.9 665.93 960.69 667.73 950.96 674.29 914.96 681.81 874 686.46 829.64 698.32 718.6 648.57 580.88 648.04 579.4Z" fill="#3c2c5b" opacity="1" stroke-width="4" stroke="none"></path><path d="M561.24 907.66C561.24 907.66 568.54 840.76 550.02 775.13 530.96 707.38 528.21 700.08 538.48 674.14L543.03 695.52 581.98 794.61 587.28 844.46C573.2 882.25 573.41 880.35 561.24 907.66Z" fill="#000000" opacity="0.3" stroke-width="4" stroke="none"></path><path d="M538.05 667.89C542.39 713.41 564.09 743.9 575.31 775.34 584.52 803.71 587.7 806.36 587.06 845.31" stroke="#000000" stroke-width="4" stroke-linecap="round" stroke-linejoin="round" opacity="1" fill="none"></path><path d="M574.36 1090.37C571.82 1079.47 569.7 1067.4 568.12 1055.54 589.61 1056.28 607.92 1070.26 615.01 1090.37H574.36Z" fill="#3c2c5b" opacity="1" stroke-width="4" stroke="none"></path><path d="M646.45 1090.26C647.83 1077.45 654.5 1065.18 664.76 1057.24 669.1 1061.15 673.97 1064.65 678.53 1068.14 687.63 1074.81 696.2 1081.27 701.5 1089.42 701.6 1089.52 701.71 1090.26 701.6 1090.26H646.45Z" fill="#3c2c5b" opacity="1" stroke-width="4" stroke="none"></path><path d="M500.26 1089.73C500.69 1075.23 508.73 1061.79 521.22 1054.59 524.93 1059.25 529.48 1063.16 534.35 1067.29 541.76 1073.54 549.38 1080.1 553.72 1089.63L552.34 1096.19 500.26 1089.73Z" fill="#3c2c5b" opacity="1" stroke-width="4" stroke="none"></path><path d="M621.79 580.25C621.79 580.25 660.95 730.56 649.31 831.13 639.46 915.81 624.33 993.19 624.33 993.19" stroke="#000000" stroke-width="4" stroke-linecap="round" stroke-linejoin="round" opacity="1" fill="none"></path><path d="M578.7 1106.25C578.49 1105.61 576.48 1099.79 574.26 1089.84L701.6 1089.73C704.78 1094.6 706.68 1100.53 706.68 1106.35L578.7 1106.25Z" fill="#000000" opacity="1" stroke-width="4" stroke="none"></path><path d="M425.95 1106.25C424.26 1100.64 422.99 1095.03 422.25 1089.73L553.72 1089.63C556.05 1094.92 557.21 1100.53 557.32 1106.25H425.95V1106.25Z" fill="#000000" opacity="1" stroke-width="4" stroke="none"></path><path d="M864.73 657.2C856.68 657.2 828.95 629.79 828.63 629.47 828.42 629.47 804.18 625.02 795.81 608.3 795.81 608.3 795.81 608.3 795.71 608.3 794.76 608.3 785.23 607.87 773.58 607.03 773.16 607.03 772.95 606.92 772.42 606.92L793.59 540.87C849.27 560.56 880.82 576.75 883.25 587.13 883.68 589.14 883.15 590.94 882.6 592.23 881.88 592.63 905.59 612 904.42 622.59 904.21 624.71 902.94 626.4 900.72 627.46 900.72 627.46 901.67 632.22 899.13 635.4 897.65 637.2 895.32 638.04 892.25 638.04 892.25 638.04 892.25 639.95 891.19 641.75 890.13 643.44 888.02 645.56 883.46 645.56 882.93 645.56 882.3 645.56 881.66 645.45 871.18 644.39 857.53 633.91 857.32 633.81 857.53 634.02 869.17 648.84 867.69 654.98 867.48 656.04 866.84 656.78 865.89 657.1 865.36 657.1 865.04 657.2 864.73 657.2Z" fill="#996b4d" opacity="1" stroke-width="4" stroke="none"></path><path d="M549.27 381.87C549.27 381.02 550.23 313.8 550.23 298.77 550.12 272.31 565.47 255.48 591.93 254.74L595 253.15C616.49 253.15 631.1 253.04 639.99 267.02 644.86 274.74 648.57 292.21 650.47 306.57 650.47 306.71 659.26 308.19 660.11 312.43 660.74 316.66 652.8 323.23 652.8 323.23 652.8 323.23 658.94 344.4 652.91 357.73 646.87 371.07 629.83 371.5 615.12 367.9L614.8 382.51 549.27 381.87Z" fill="#996b4d" opacity="1" stroke-width="4" stroke="none"></path><path d="M599.03 360.59C605.48 364.3 614.91 367.9 615.01 367.9L614.8 379.12 598.71 361.12C598.39 360.8 598.71 360.38 599.03 360.59Z" fill="#191919" opacity="0.3" stroke-width="4" stroke="none"></path><path d="M645.07 279.93C643.91 275.27 642.53 271.14 640.2 267.02 632.9 255.58 621.47 249.02 606.13 245.94 606.01 245.95 606.33 244.79 606.65 243.62 610.35 230.18 608.34 218 601.14 209.43 594.79 201.91 584.95 197.78 573.2 197.78 572.03 197.78 570.97 197.78 570.76 196.97 569.6 191.86 567.59 186.46 564.09 182.22 559.12 176.3 551.18 173.01 541.76 173.01 529.06 173.01 514.98 178.73 503.12 188.68 492.64 197.47 485.12 208.37 481.95 219.49 478.77 230.6 480.26 240.66 486.08 247.64 492.22 255.23 502.9 256.01 502.52 256.12 499.94 267.86 501.85 278.87 508.63 287.02 514.98 294.54 524.82 298.67 536.57 298.67 540.17 298.67 547.69 297.02 547.63 297.52 547.58 312.43 548.22 343.34 549.34 363.65H549.66C555.52 363.2 569.81 358.26 581.21 341.57 581.69 340.86 566.85 327.25 566.32 315.71 566.11 310.63 567.8 306.18 571.5 302.48 574.68 299.3 578.38 297.71 582.41 297.71 594.47 297.71 606.33 311.9 606.44 311.85 606.54 311.9 619.14 304.38 617.18 285.8 616.7 285.54 620.62 286.07 624.43 286.07 637.35 286.07 644.76 280.14 645.07 279.93Z" fill="#231f20" opacity="1" stroke-width="4" stroke="none"></path><path d="M773.58 607.03C753.79 605.44 717.8 600.99 699.7 589.24 674.82 573.05 658.41 536.42 655.66 529.96 655.55 529.65 655.13 529.75 655.13 530.07L648.04 579.4C647.93 580.25 647.19 580.88 646.34 580.88L524.93 580.77C524.4 580.77 523.87 581.09 523.44 581.52L509.9 600.89C509.47 601.52 508.63 601.84 507.88 601.52 504.39 600.25 494.12 595.81 484.49 586.6 473.59 576.22 461.31 557.38 464.69 526.79 470.09 476.93 493.38 422.52 504.92 406.11 525.63 389.93 546.39 388.06 556.33 387.49 560.34 386.73 583.72 387.58 600.93 386.05 611.03 387 617.38 386.73 620.66 387.49 625.47 386.73 662.22 388.59 686.99 416.8 706.89 449.51 737.28 515.46 740.66 522.98 740.87 523.4 741.3 523.72 741.72 523.93 746.06 525.2 768.5 531.97 794.01 540.97 794.97 541.29 795.39 542.24 795.07 543.2L773.58 607.03Z" fill="#ff4f32" opacity="1" stroke-width="4" stroke="none"></path><path d="M509.15 602.05C503.86 600.25 498.46 597.39 493.38 593.9L493.49 593.8C505.98 574.64 509.05 554.95 510.11 521.92 510.11 521.28 511.06 521.18 511.27 521.81L524.08 580.56C524.08 580.67 524.08 580.88 523.97 580.99L509.15 602.05Z" fill="#000000" opacity="0.3" stroke-width="4" stroke="none"></path><path d="M612.58 578.76L642 504.24C642.53 502.86 644.44 502.86 644.97 504.24L655.02 528.59C655.13 528.9 655.13 529.12 655.13 529.43L647.93 579.61C647.83 580.35 647.19 580.99 646.34 580.99H614.06C613 580.99 612.15 579.82 612.58 578.76Z" fill="#000000" opacity="0.3" stroke-width="4" stroke="none"></path><path d="M557.32 490.06C555.1 490.06 552.77 489.84 550.33 489.53 540.49 487.94 532.97 483.39 528 476.08 518.89 462.85 520.16 443.8 521.22 435.96 521.43 434.27 519.85 432.89 518.26 433.32 513.81 434.48 510.32 435.01 507.25 435.01 502.38 435.01 498.15 433.85 492.96 430.88 492.32 430.56 492.11 429.82 492.43 429.19 496.87 419.34 501.11 411.09 504.71 406.01 519.32 385.05 546.95 380.71 549.27 380.71 549.27 380.71 579.23 380.49 599.87 380.49 615.86 380.49 618.08 380.81 618.08 380.81 618.08 380.81 665.82 382.19 686.99 416.7 692.6 426.01 699.17 437.97 704.14 447.71 704.67 448.67 703.82 449.83 702.77 449.83 691.12 448.77 681.38 441.04 676.94 436.7 675.98 435.86 674.5 436.49 674.61 437.76 674.93 444.54 674.5 458.83 667.2 467.83 663.28 472.7 657.78 475.55 651 476.19 649.63 476.29 648.36 476.4 646.98 476.4 622.42 476.4 609.72 454.7 605.17 444.85 604.53 443.48 602.52 443.58 602.1 445.07 598.5 457.66 586.43 490.06 557.32 490.06Z" fill="#3c2c5b" opacity="1" stroke-width="4" stroke="none"></path><path d="M637.77 310.1C639.53 310.1 640.95 308.68 640.95 306.92 640.95 305.17 639.53 303.75 637.77 303.75 636.01 303.75 634.59 305.17 634.59 306.92 634.59 308.68 636.01 310.1 637.77 310.1Z" fill="#231f20" opacity="1" stroke-width="4" stroke="none"></path><path d="M632.9 328.41C634.81 330.85 637.88 332.12 640.95 331.69" stroke="#191919" stroke-width="4" stroke-linecap="round" stroke-linejoin="round" opacity="1" fill="none"></path><path d="M584.31 316.13L592.46 324.07" stroke="#191919" stroke-width="4" stroke-linecap="round" stroke-linejoin="round" opacity="1" fill="none"></path><path d="M603.9 363.13C607.5 364.93 611.31 366.41 615.01 367.9" stroke="#191919" stroke-width="4" stroke-linecap="round" stroke-linejoin="round" opacity="1" fill="none"></path><path d="M523.97 580.88L508.73 509.85" stroke="#000000" stroke-width="4" stroke-linecap="round" stroke-linejoin="round" opacity="1" fill="none"></path><path d="M655.24 528.9L642.96 499.16" stroke="#000000" stroke-width="4" stroke-linecap="round" stroke-linejoin="round" opacity="1" fill="none"></path><path d="M900.82 627.46C888.02 614.44 874.25 602.37 859.54 591.47" stroke="#191919" stroke-width="4" stroke-linecap="round" stroke-linejoin="round" opacity="1" fill="none"></path><path d="M891.3 639.1C891.3 639.1 871.18 618.99 851.07 605.23" stroke="#191919" stroke-width="4" stroke-linecap="round" stroke-linejoin="round" opacity="1" fill="none"></path><path d="M857.42 633.81L842.6 618.99" stroke="#191919" stroke-width="4" stroke-linecap="round" stroke-linejoin="round" opacity="1" fill="none"></path></g></svg>